<?xml version="1.0" standalone="no"?>
<!DOCTYPE svg PUBLIC "-//W3C//DTD SVG 20010904//EN"
 "http://www.w3.org/TR/2001/REC-SVG-20010904/DTD/svg10.dtd">
<svg version="1.0" xmlns="http://www.w3.org/2000/svg"
 width="1080.000000pt" height="1080.000000pt" viewBox="0 0 1080.000000 1080.000000"
 preserveAspectRatio="xMidYMid meet">
<metadata>
Created by potrace 1.14, written by Peter Selinger 2001-2017
</metadata>
<g transform="translate(0.000000,1080.000000) scale(0.100000,-0.100000)"
fill="#000000" stroke="none">
<path d="M4859 10796 c-2 -2 -33 -7 -69 -11 -36 -4 -76 -8 -90 -10 -89 -12
-121 -16 -170 -25 -30 -5 -68 -12 -85 -15 -45 -7 -73 -13 -150 -29 -38 -9 -81
-17 -95 -20 -14 -2 -72 -16 -130 -31 -781 -202 -1483 -558 -2105 -1070 -147
-120 -191 -161 -385 -355 -179 -178 -220 -223 -320 -345 -36 -44 -71 -87 -79
-95 -8 -8 -55 -69 -104 -135 -342 -458 -604 -952 -784 -1480 -63 -185 -131
-420 -158 -547 -2 -13 -11 -54 -19 -93 -16 -73 -17 -77 -40 -215 -17 -97 -34
-222 -41 -295 -3 -27 -7 -63 -10 -80 -26 -172 -26 -871 0 -1050 2 -16 12 -91
21 -165 9 -74 18 -144 20 -155 2 -11 6 -36 9 -55 3 -19 7 -46 10 -60 3 -14 8
-41 11 -60 11 -57 11 -61 34 -160 55 -247 110 -431 207 -700 53 -145 63 -169
163 -390 206 -454 507 -911 870 -1325 85 -97 420 -425 521 -510 407 -344 794
-588 1314 -830 72 -34 364 -149 405 -160 3 -1 12 -5 20 -8 15 -6 83 -28 200
-65 78 -24 333 -92 369 -98 14 -3 67 -13 116 -24 50 -10 133 -26 185 -35 52
-8 106 -17 120 -20 60 -10 246 -30 395 -42 199 -15 709 -9 910 12 89 9 151 16
175 20 14 2 61 9 105 15 113 17 126 19 205 35 14 3 41 8 60 11 74 13 363 85
477 119 749 226 1403 588 2019 1119 80 69 419 407 482 481 24 28 51 59 61 70
92 105 280 353 389 516 209 313 419 719 538 1039 13 36 28 74 33 85 12 26 62
170 65 187 2 7 6 20 9 28 18 44 111 384 124 450 2 14 9 45 14 70 35 154 70
379 94 605 26 246 26 908 0 1045 -2 13 -7 53 -10 89 -6 69 -9 95 -19 158 -3
21 -9 55 -12 77 -3 21 -7 48 -10 59 -2 12 -6 39 -10 61 -3 22 -7 43 -9 46 -2
3 -6 26 -10 50 -6 43 -77 344 -95 405 -164 541 -335 930 -598 1360 -96 157
-260 393 -359 515 -36 45 -119 147 -128 156 -5 7 -35 41 -65 75 -66 78 -404
417 -480 481 -138 119 -152 130 -285 233 -496 385 -1139 714 -1740 890 -235
69 -596 149 -765 169 -100 13 -136 18 -160 24 -28 6 -1154 14 -1161 8z"/>
<path d="M0 93 l0 -93 34 0 35 0 -25 60 c-13 33 -24 68 -24 77 0 10 -5 25 -10
33 -7 10 -10 -14 -10 -77z"/>
</g>
</svg>
